# xmcd
#
# Track frame offsets: 
#        150
#        10460
#        26810
#        47873
#        58795
#        82483
#        97770
#        112058
#        125033
#        145370
#        158295
#        170033
#
# Disc length: 2539 seconds
#
# Revision: 0
# Processed by: cddbd v1.5.2PL0 Copyright (c) Steve Scherf et al.
# Submitted via: ExactAudioCopy v0.99pb5
#
DISCID=ab09e90c
DTITLE=Eddie Hinton - Letters from Mississippi
DYEAR=1987
DGENRE=Blues
TTITLE0=My Searching Is Over
TTITLE1=Everybody Needs Love
TTITLE2=Letters From Mississippi
TTITLE3=Everybody Meets Mr.Blue
TTITLE4=It's All Right
TTITLE5=Sad And Lonesome
TTITLE6=I Want A Woman
TTITLE7=Uncloudy Day
TTITLE8=Ting-A-Ling-Ling
TTITLE9=I Will Always Love You
TTITLE10=Wet Weather Man
TTITLE11=I'll Come Running (Back To You)
EXTD=
EXTT0=
EXTT1=
EXTT2=
EXTT3=
EXTT4=
EXTT5=
EXTT6=
EXTT7=
EXTT8=
EXTT9=
EXTT10=
EXTT11=
PLAYORDER=
